<svg width="922" height="161" viewBox="0 0 922 161" fill="none" xmlns="http://www.w3.org/2000/svg">
<g clip-path="url(#clip0_39_3065)">
<path d="M90.4651 114.313C90.7113 114.241 90.9563 114.166 91.2002 114.088L124.822 147.71C120.056 150.86 114.934 153.517 109.531 155.607C100.525 159.09 90.7355 161 80.5 161C77.7213 161 74.9755 160.859 72.2693 160.584C49.2404 158.246 29.0811 146.2 15.9473 128.604C10.8125 121.724 6.75146 113.997 4.0127 105.669C4.01267 105.669 4.01272 105.669 4.0127 105.669C1.40868 97.7505 0 89.2897 0 80.5C0 36.0411 36.0411 0 80.5 0C124.959 0 161 36.0411 161 80.5C161 94.8798 157.229 108.379 150.623 120.063C146.986 126.496 142.489 132.378 137.289 137.555C137.191 137.652 137.093 137.75 136.994 137.847L104.989 105.843C110.79 100.236 114.672 92.6549 115.552 84.1825C115.678 82.9721 115.742 81.7436 115.742 80.5C115.742 78.9144 115.637 77.3533 115.434 75.8232C115.17 73.8316 114.74 71.8924 114.158 70.0201C113.928 69.283 113.676 68.5563 113.4 67.8409C108.314 54.6314 95.5019 45.2581 80.5 45.2581C61.0364 45.2581 45.2581 61.0364 45.2581 80.5C45.2581 93.3137 52.0964 104.53 62.3226 110.699C66.1737 113.022 70.5052 114.629 75.133 115.336C76.883 115.603 78.6753 115.742 80.5 115.742C83.9608 115.742 87.3055 115.243 90.4651 114.313Z" fill="#8B55FF"/>
</g>
<path d="M206 72.7333C206 63.4889 208.016 55.2667 212.049 48.0667C216.082 40.7778 221.682 35.1333 228.852 31.1333C236.11 27.0444 244.31 25 253.451 25C264.652 25 274.241 27.9333 282.217 33.8C290.192 39.6667 295.525 47.6667 298.213 57.8H272.942C271.06 53.8889 268.371 50.9111 264.877 48.8667C261.471 46.8222 257.573 45.8 253.182 45.8C246.102 45.8 240.367 48.2444 235.976 53.1333C231.585 58.0222 229.389 64.5556 229.389 72.7333C229.389 80.9111 231.585 87.4444 235.976 92.3333C240.367 97.2222 246.102 99.6667 253.182 99.6667C257.573 99.6667 261.471 98.6444 264.877 96.6C268.371 94.5556 271.06 91.5778 272.942 87.6667H298.213C295.525 97.8 290.192 105.8 282.217 111.667C274.241 117.444 264.652 120.333 253.451 120.333C244.31 120.333 236.11 118.333 228.852 114.333C221.682 110.244 216.082 104.6 212.049 97.4C208.016 90.2 206 81.9778 206 72.7333Z" fill="#213356"/>
<path d="M307.719 82.3333C307.719 74.6889 309.153 67.9778 312.021 62.2C314.978 56.4222 318.966 51.9778 323.984 48.8667C329.002 45.7556 334.603 44.2 340.787 44.2C346.074 44.2 350.689 45.2667 354.632 47.4C358.665 49.5333 361.756 52.3333 363.907 55.8V45.2667H386.893V119.667H363.907V109.133C361.667 112.6 358.53 115.4 354.498 117.533C350.555 119.667 345.94 120.733 340.652 120.733C334.559 120.733 329.002 119.178 323.984 116.067C318.966 112.867 314.978 108.378 312.021 102.6C309.153 96.7333 307.719 89.9778 307.719 82.3333ZM363.907 82.4667C363.907 76.7778 362.294 72.2889 359.068 69C355.931 65.7111 352.078 64.0667 347.508 64.0667C342.937 64.0667 339.039 65.7111 335.813 69C332.677 72.2 331.108 76.6444 331.108 82.3333C331.108 88.0222 332.677 92.5556 335.813 95.9333C339.039 99.2222 342.937 100.867 347.508 100.867C352.078 100.867 355.931 99.2222 359.068 95.9333C362.294 92.6444 363.907 88.1556 363.907 82.4667Z" fill="#213356"/>
<path d="M449.226 44.4667C458.008 44.4667 464.998 47.3111 470.195 53C475.483 58.6 478.126 66.3333 478.126 76.2V119.667H455.275V79.2667C455.275 74.2889 453.975 70.4222 451.377 67.6667C448.778 64.9111 445.283 63.5333 440.892 63.5333C436.501 63.5333 433.006 64.9111 430.407 67.6667C427.808 70.4222 426.509 74.2889 426.509 79.2667V119.667H403.523V45.2667H426.509V55.1333C428.839 51.8444 431.975 49.2667 435.918 47.4C439.861 45.4444 444.297 44.4667 449.226 44.4667Z" fill="#213356"/>
<path d="M489.529 82.3333C489.529 74.6889 490.963 67.9778 493.831 62.2C496.788 56.4222 500.776 51.9778 505.794 48.8667C510.812 45.7556 516.413 44.2 522.597 44.2C527.525 44.2 532.006 45.2222 536.039 47.2667C540.161 49.3111 543.387 52.0667 545.717 55.5333V21H568.703V119.667H545.717V109C543.566 112.556 540.475 115.4 536.442 117.533C532.499 119.667 527.884 120.733 522.597 120.733C516.413 120.733 510.812 119.178 505.794 116.067C500.776 112.867 496.788 108.378 493.831 102.6C490.963 96.7333 489.529 89.9778 489.529 82.3333ZM545.717 82.4667C545.717 76.7778 544.104 72.2889 540.878 69C537.741 65.7111 533.888 64.0667 529.318 64.0667C524.747 64.0667 520.849 65.7111 517.623 69C514.487 72.2 512.918 76.6444 512.918 82.3333C512.918 88.0222 514.487 92.5556 517.623 95.9333C520.849 99.2222 524.747 100.867 529.318 100.867C533.888 100.867 537.741 99.2222 540.878 95.9333C544.104 92.6444 545.717 88.1556 545.717 82.4667Z" fill="#213356"/>
<path d="M661.953 45.2667L614.905 155H590.172L607.378 117.133L576.864 45.2667H602.538L619.879 91.8L637.085 45.2667H661.953Z" fill="#213356"/>
<path d="M742.18 56.2C742.18 61.6222 740.925 66.6 738.416 71.1333C735.907 75.5778 732.054 79.1778 726.856 81.9333C721.658 84.6889 715.206 86.0667 707.499 86.0667H693.251V119.667H670.265V26.0667H707.499C715.027 26.0667 721.39 27.3556 726.587 29.9333C731.785 32.5111 735.683 36.0667 738.282 40.6C740.881 45.1333 742.18 50.3333 742.18 56.2ZM705.752 67.9333C710.143 67.9333 713.414 66.9111 715.565 64.8667C717.715 62.8222 718.791 59.9333 718.791 56.2C718.791 52.4667 717.715 49.5778 715.565 47.5333C713.414 45.4889 710.143 44.4667 705.752 44.4667H693.251V67.9333H705.752Z" fill="#213356"/>
<path d="M749.576 82.3333C749.576 74.6889 751.01 67.9778 753.878 62.2C756.835 56.4222 760.823 51.9778 765.841 48.8667C770.86 45.7556 776.461 44.2 782.644 44.2C787.931 44.2 792.546 45.2667 796.489 47.4C800.522 49.5333 803.614 52.3333 805.764 55.8V45.2667H828.75V119.667H805.764V109.133C803.524 112.6 800.388 115.4 796.355 117.533C792.412 119.667 787.797 120.733 782.51 120.733C776.416 120.733 770.86 119.178 765.841 116.067C760.823 112.867 756.835 108.378 753.878 102.6C751.01 96.7333 749.576 89.9778 749.576 82.3333ZM805.764 82.4667C805.764 76.7778 804.151 72.2889 800.925 69C797.789 65.7111 793.935 64.0667 789.365 64.0667C784.795 64.0667 780.897 65.7111 777.67 69C774.534 72.2 772.966 76.6444 772.966 82.3333C772.966 88.0222 774.534 92.5556 777.67 95.9333C780.897 99.2222 784.795 100.867 789.365 100.867C793.935 100.867 797.789 99.2222 800.925 95.9333C804.151 92.6444 805.764 88.1556 805.764 82.4667Z" fill="#213356"/>
<path d="M922 45.2667L874.953 155H850.219L867.425 117.133L836.911 45.2667H862.586L879.926 91.8L897.132 45.2667H922Z" fill="#213356"/>
<defs>
<clipPath id="clip0_39_3065">
<rect width="161" height="161" fill="white"/>
</clipPath>
</defs>
</svg>
